<?xml version="1.0" encoding="utf-8"?>
<!-- Generator: Adobe Illustrator 23.0.5, SVG Export Plug-In . SVG Version: 6.00 Build 0)  -->
<svg version="1.1" id="Layer_1" xmlns="http://www.w3.org/2000/svg" xmlns:xlink="http://www.w3.org/1999/xlink" x="0px" y="0px"
	 viewBox="0 0 1800 742" style="enable-background:new 0 0 1800 742;" xml:space="preserve">
<style type="text/css">
	.st0{clip-path:url(#SVGID_2_);}
	.st1{clip-path:url(#SVGID_4_);}
	.st2{clip-path:url(#SVGID_8_);}
	.st3{clip-path:url(#SVGID_10_);}
</style>
<g>
	<g>
		<defs>
			<path id="SVGID_1_" d="M1324.8,292.3c-0.4,53.1-17.2,95.3-50.2,126.6c-33.5,31.7-72.6,47.6-117.3,47.6
				c-44.7,0-83.8-15.9-117.3-47.6c-33.1-31.3-49.8-73.5-50.2-126.6H779.9c-0.4,40.2-13,73.9-37.9,101
				c-25.3,27.6-57.3,41.4-96.1,41.4c-38.8,0-70.8-13.8-96.1-41.4c-24.8-27.1-37.4-60.8-37.9-101H277.4
				c0.4,120.1,32.7,216.7,97,289.7c64.7,73.5,147,110.2,246.9,110.2c102.3,0,185.2-33.5,248.7-100.5
				c63.5,99.9,161.7,149.9,294.5,149.9c117.6,0,214.6-42.9,291-128.7c76-85.3,114.2-192.2,114.6-320.6H1324.8z"/>
		</defs>
		<clipPath id="SVGID_2_">
			<use xlink:href="#SVGID_1_"  style="overflow:visible;"/>
		</clipPath>
		<g class="st0">
			<g>
				<defs>
					<rect id="SVGID_3_" x="272.4" y="287.3" width="1302.6" height="459.3"/>
				</defs>
				<clipPath id="SVGID_4_">
					<use xlink:href="#SVGID_3_"  style="overflow:visible;"/>
				</clipPath>
				<g class="st1">
					<defs>
						<rect id="SVGID_5_" x="272.4" y="287.3" width="1302.6" height="459.3"/>
					</defs>
					<clipPath id="SVGID_6_">
						<use xlink:href="#SVGID_5_"  style="overflow:visible;"/>
					</clipPath>
					<g style="clip-path:url(#SVGID_6_);">
						
							<image style="overflow:visible;" width="2715" height="958" xlink:href="859B8D62.jpg"  transform="matrix(0.48 0 0 0.48 272.16 287.12)">
						</image>
					</g>
				</g>
			</g>
		</g>
	</g>
</g>
<g>
	<g>
		<defs>
			<path id="SVGID_7_" d="M901.5,267.7L901.5,267.7c-65.5,0-118.6-53.1-118.6-118.6v0c0-65.5,53.1-118.6,118.6-118.6h0
				c65.5,0,118.6,53.1,118.6,118.6v0C1020.1,214.6,967,267.7,901.5,267.7z"/>
		</defs>
		<clipPath id="SVGID_8_">
			<use xlink:href="#SVGID_7_"  style="overflow:visible;"/>
		</clipPath>
		<g class="st2">
			<g>
				<defs>
					<rect id="SVGID_9_" x="777.9" y="25.5" width="247.2" height="247.2"/>
				</defs>
				<clipPath id="SVGID_10_">
					<use xlink:href="#SVGID_9_"  style="overflow:visible;"/>
				</clipPath>
				<g class="st3">
					<defs>
						<rect id="SVGID_11_" x="777.9" y="25.5" width="247.2" height="247.2"/>
					</defs>
					<clipPath id="SVGID_12_">
						<use xlink:href="#SVGID_11_"  style="overflow:visible;"/>
					</clipPath>
					<g style="clip-path:url(#SVGID_12_);">
						
							<image style="overflow:visible;" width="516" height="516" xlink:href="859B8D66.jpg"  transform="matrix(0.48 0 0 0.48 777.6 25.04)">
						</image>
					</g>
				</g>
			</g>
		</g>
	</g>
</g>
</svg>
